<?xml version="1.0" encoding="UTF-8"?><svg id="Layer_1" xmlns="http://www.w3.org/2000/svg" viewBox="0 0 235.87 72.87"><defs><style>.cls-1{fill:#070707;}</style></defs><polygon class="cls-1" points="22.5 22.5 45 22.5 22.5 45 22.5 22.5"/><polygon class="cls-1" points="22.5 0 45 0 22.5 22.5 22.5 0"/><polygon class="cls-1" points="0 0 22.5 0 0 22.5 0 0"/><polygon class="cls-1" points="0 45 22.5 45 0 67.5 0 45"/><polygon class="cls-1" points="0 22.5 22.5 22.5 0 45 0 22.5"/><g><path d="m102.57,12.39h11.31l-15.56,43.86h-13.37l-15.56-43.86h11.37l10.87,33.12,10.94-33.12Z"/><path d="m116.31,12.01c0-3.25,2.56-5.81,6.37-5.81s6.31,2.56,6.31,5.81-2.56,5.75-6.31,5.75-6.37-2.56-6.37-5.75Zm1,9.37h10.68v34.87h-10.68V21.38Z"/><path d="m156.16,20.88c8.56,0,15.37,6.87,15.37,17.87s-6.81,18-15.37,18c-5.12,0-8.81-2.44-10.75-5.37v21.5h-10.68V21.38h10.68v4.94c1.94-3.06,5.62-5.44,10.75-5.44Zm-3.19,9.31c-4,0-7.62,3.06-7.62,8.62s3.62,8.62,7.62,8.62,7.69-3.12,7.69-8.69-3.62-8.56-7.69-8.56Z"/><path d="m192.05,56.75c-10.25,0-17.62-6.87-17.62-17.93s7.25-17.93,17.62-17.93,17.37,6.75,17.37,17.37c0,1-.06,2.06-.19,3.12h-24.18c.38,4.56,3.19,6.69,6.62,6.69,3,0,4.69-1.5,5.56-3.37h11.37c-1.69,6.81-7.87,12.06-16.56,12.06Zm-6.94-21.31h13.37c0-3.81-3-6-6.56-6s-6.19,2.12-6.81,6Z"/><path d="m224.93,56.25h-10.68V21.38h10.68v5.81c2.44-3.69,6.25-6.19,10.94-6.19v11.31h-2.94c-5.06,0-8,1.75-8,7.75v16.18Z"/></g></svg>