<?xml version="1.0" encoding="UTF-8"?><svg id="Layer_1" xmlns="http://www.w3.org/2000/svg" viewBox="0 0 294.92 67.5"><defs><style>.cls-1{fill:#070707;}</style></defs><polygon class="cls-1" points="45 22.5 67.5 22.5 45 45 45 22.5"/><polygon class="cls-1" points="45 0 67.5 0 45 22.5 45 0"/><polygon class="cls-1" points="45 0 22.5 22.5 0 22.5 22.5 0 45 0"/><polygon class="cls-1" points="45 22.5 22.5 45 0 45 22.5 22.5 45 22.5"/><polygon class="cls-1" points="45 45 22.5 67.5 0 67.5 22.5 45 45 45"/><g><path d="m120.95,12.77h10.14l-13.94,39.31h-11.98l-13.94-39.31h10.19l9.74,29.68,9.8-29.68Z"/><path d="m146.49,12.77h9.58v39.31h-9.58V12.77Z"/><path d="m190.83,37.97h-5.94v14.11h-9.58V12.77h15.51c9.63,0,14.45,5.43,14.45,12.66,0,6.5-4.42,12.54-14.45,12.54Zm-.73-7.62c3.81,0,5.43-1.9,5.43-4.93s-1.62-4.93-5.43-4.93h-5.21v9.86h5.21Z"/><path d="m245.44,20.45h-14.5v7.95h12.82v7.39h-12.82v8.62h14.5v7.67h-24.08V12.77h24.08v7.67Z"/><path d="m280.13,12.77c9.63,0,14.45,5.54,14.45,12.38,0,4.93-2.69,9.58-8.74,11.37l9.07,15.57h-10.81l-8.18-14.84h-2.3v14.84h-9.58V12.77h16.07Zm-.56,7.95h-5.94v9.74h5.94c3.58,0,5.26-1.85,5.26-4.93,0-2.91-1.68-4.82-5.26-4.82Z"/></g></svg>